<svg xmlns="http://www.w3.org/2000/svg" enable-background="new 0 0 1000 1000" viewBox="0 0 1000 1000">
    <path fill="none" d="M0 0h1000v1000H0z" />
    <path fill="#36303e" d="M764.73 713H232.307c-6.267 0-11.347-5.08-11.347-11.347 0-6.267 5.08-11.347 11.347-11.347H764.73c6.267 0 11.347 5.08 11.347 11.347 0 6.267-5.08 11.347-11.347 11.347z" />
    <path fill="#403a46" d="M550.497 637.388h85.177v33.167h-85.177z" />
    <path fill="#37333d" d="M550.497 640.5h85.177v17h-85.177z" opacity=".75" />
    <path fill="none" stroke="#36303e" stroke-linecap="round" stroke-linejoin="round" stroke-miterlimit="10" stroke-width="4" d="M550.497 637.388h85.177v33.167h-85.177z" />
    <path fill="#403a46" d="M718.508 355.054h-206c0-17.673 14.327-32 32-32h142c17.673 0 32 14.327 32 32z" />
    <path fill="#ededed" d="M534.715 339.054H696.3c7.54 0 9.806-10.395 2.885-13.388a31.86 31.86 0 0 0-12.678-2.612h-142c-4.505 0-8.791.932-12.678 2.612-6.92 2.993-4.654 13.388 2.886 13.388z" opacity=".13" />
    <path fill="none" stroke="#36303e" stroke-linecap="round" stroke-linejoin="round" stroke-miterlimit="10" stroke-width="4" d="M718.508 355.054h-206v0c0-17.673 14.327-32 32-32h142c17.673 0 32 14.327 32 32h0z" />
    <path fill="#403a46" d="M455.008 587.888h37.333v33.5h-37.333z" />
    <path fill="none" stroke="#372f3c" stroke-linecap="round" stroke-linejoin="round" stroke-miterlimit="10" stroke-width="4" d="M455.008 587.888h37.333v33.5h-37.333z" />
    <path fill="#5789C7" d="M688.341 644.054H510.824c-18.045 0-32.007-15.649-29.768-33.554l31.452-255.446h206v259.167c0 16.568-13.599 29.833-30.167 29.833z" />
    <path fill="#5789C7" d="M488.089 622.616h-7.269v-8.5h15.769a8.5 8.5 0 0 1-8.5 8.5zM706.401 383.661v226.111c0 13.352-10.925 24.277-24.277 24.277h-174.12c-4.939 0-8.885 4.113-8.68 9.048 2.415.622 8.876.958 11.501.958h177.517c16.592 0 30.167-13.575 30.167-30.167V371.554c-6.688 0-12.108 5.421-12.108 12.107z" />
    <path fill="#5789C7" d="M709.758 569.971h-6.292a6.625 6.625 0 0 0-6.625 6.625v42.411a8.62 8.62 0 0 0 8.62 8.62h4.297v-57.656z" />
    <path fill="#3ba2dc" d="M649.674 368.054H510.907l-25.61 208h164.377c26.51 0 47.833-21.324 47.833-47.833V415.554c.001-26.51-21.323-47.5-47.833-47.5z" />
    <path fill="#36303e" d="M645.994 577.515h-52.909v-20.002c0-30.915 25.061-55.976 55.976-55.976h50.307v22.604c.001 29.477-23.896 53.374-53.374 53.374zM699.369 501.536h-35.612v-38.357c0-10.01 8.115-18.125 18.125-18.125h17.487v56.482zM699.369 445.054h-10.862v-28.752a6.623 6.623 0 0 1 6.623-6.623h4.239v35.375z" opacity=".63" />
    <path fill="#385a78" d="m493.07 512.924-7.773 63.13h66.643z" />
    <path fill="none" stroke="#385a78" stroke-linecap="round" stroke-linejoin="round" stroke-miterlimit="10" stroke-width="6" d="m565.508 504.989-23.5 25.372M582.591 522.808l-34.166-35.638" />
    <path fill="#385a78" d="m528.748 554.137-11.353-12.461 19.468-19.468 11.907 11.907z" />
    <path fill="#3ba2dc" d="M649.674 368.054H510.907l-25.61 208h164.377c26.51 0 47.833-21.324 47.833-47.833V415.554c.001-26.51-21.323-47.5-47.833-47.5z" opacity=".76" />
    <path fill="#fff" d="M617.825 368.054h-69.503l148.617 167.581c.372-2.415.568-4.891.568-7.414v-70.317l-79.682-89.85zM526.94 368.054h-15.719l172.18 194.149a47.714 47.714 0 0 0 7.364-9.42L526.94 368.054z" opacity=".35" />
    <path fill="#fde3be" d="M512.508 355.054 481.056 610.5a30.487 30.487 0 0 0-.21 3.054 13.233 13.233 0 0 0 13.134-11.616l29.371-238.551h181.073a8.333 8.333 0 0 0 8.333-8.333H512.508z" opacity=".35" />
    <path fill="#fff" d="M649.674 368.054H510.907l-6.829 55.467h147.28c22.131 0 40.637 14.634 46.15 34.891v-42.858c0-26.51-21.324-47.5-47.834-47.5z" opacity=".08" />
    <path fill="none" stroke="#36303e" stroke-linecap="round" stroke-linejoin="round" stroke-miterlimit="10" stroke-width="4" d="M649.674 368.054H510.907l-25.61 208h164.377c26.51 0 47.833-21.324 47.833-47.833V415.554c.001-26.51-21.323-47.5-47.833-47.5z" />
    <path fill="none" stroke="#36303e" stroke-linecap="round" stroke-linejoin="round" stroke-miterlimit="10" stroke-width="4" d="M688.341 644.054H510.824c-18.045 0-32.007-15.649-29.768-33.554l31.452-255.446h206v259.167c0 16.568-13.599 29.833-30.167 29.833z" />
    <path fill="#67646d" d="M443.96 397.471V620.47h-223c0 9.389 7.611 17 17 17h207v.001h16v-240h-17z" />
    <path fill="#ededed" d="M440.841 627.627H230.787a3.12 3.12 0 0 1 0-6.24h210.054a3.12 3.12 0 0 1 0 6.24zM447.73 622.616a3.77 3.77 0 0 1-3.77-3.77V407.603a3.77 3.77 0 0 1 7.54 0v211.243a3.77 3.77 0 0 1-3.77 3.77z" opacity=".13" />
    <path fill="none" stroke="#372f3c" stroke-linecap="round" stroke-linejoin="round" stroke-miterlimit="10" stroke-width="4" d="M443.96 403.422V620.47h-223v0c0 9.389 7.611 17 17 17h207v.001h16V403.422a5.95 5.95 0 0 0-5.951-5.951h-5.098a5.951 5.951 0 0 0-5.951 5.951z" />
    <path fill="#403a46" d="M528.015 370.088h-13.1c1.175-6.282 4.899-11.658 10.053-15.034h-12.522c-6.28 4.12-10.431 11.22-10.431 19.292 0 .389.01.776.029 1.161a6.192 6.192 0 0 0-.029.581v31a6 6 0 0 0 6 6h20a6 6 0 0 0 6-6v-31a6 6 0 0 0-6-6z" />
    <path fill="#36303e" d="M527.68 379.676v24.934a3.728 3.728 0 0 1-3.728 3.728h-21.804a6.001 6.001 0 0 0 5.868 4.75h20a6 6 0 0 0 6-6v-31c0-.441-.051-.87-.141-1.284h-1.322a4.872 4.872 0 0 0-4.873 4.872z" opacity=".74" />
    <path fill="#ededed" d="M506.256 407.679h-3.259v-36.366a3.259 3.259 0 1 1 6.518 0v33.108a3.259 3.259 0 0 1-3.259 3.258z" opacity=".13" />
    <path fill="none" stroke="#36303e" stroke-linecap="round" stroke-linejoin="round" stroke-miterlimit="10" stroke-width="4" d="M528.015 370.088h-13.1c1.175-6.282 4.899-11.658 10.053-15.034h-12.522c-6.28 4.12-10.431 11.22-10.431 19.292 0 .389.01.776.029 1.161a6.192 6.192 0 0 0-.029.581v31a6 6 0 0 0 6 6h20a6 6 0 0 0 6-6v-31a6 6 0 0 0-6-6z" />
    <path fill="#403a46" d="M586.258 660.888c0 2.429-2.196 4.636-2.601 6.949-.417 2.379.887 5.201.079 7.42-.822 2.258-3.642 3.581-4.83 5.634-1.199 2.072-.943 5.173-2.473 6.996-1.535 1.828-4.636 2.11-6.463 3.645-1.822 1.531-2.636 4.537-4.708 5.736-2.053 1.188-5.061.397-7.319 1.219-2.219.808-4.012 3.354-6.391 3.771-2.313.405-4.865-1.369-7.294-1.369-2.429 0-4.981 1.774-7.294 1.369-2.379-.417-4.172-2.963-6.391-3.771-2.258-.822-5.266-.032-7.319-1.22-2.072-1.199-2.885-4.205-4.708-5.736-1.828-1.535-4.928-1.818-6.463-3.645-1.531-1.822-1.274-4.924-2.473-6.996-1.188-2.053-4.008-3.375-4.83-5.633-.808-2.219.495-5.041.079-7.42-.405-2.313-2.601-4.52-2.601-6.949s2.196-4.636 2.601-6.949c.417-2.379-.887-5.201-.079-7.42.822-2.258 3.642-3.581 4.83-5.634 1.199-2.072.943-5.173 2.473-6.996 1.535-1.827 4.636-2.11 6.463-3.645 1.822-1.531 2.636-4.537 4.708-5.736 2.053-1.188 5.061-.397 7.319-1.219 2.219-.808 4.012-3.354 6.391-3.771 2.313-.405 4.865 1.369 7.294 1.369 2.429 0 4.981-1.774 7.294-1.369 2.379.417 4.172 2.963 6.391 3.771 2.258.822 5.266.032 7.319 1.22 2.072 1.199 2.885 4.205 4.708 5.736 1.828 1.535 4.928 1.818 6.463 3.645 1.531 1.822 1.274 4.924 2.473 6.996 1.188 2.053 4.008 3.375 4.83 5.633.808 2.219-.495 5.041-.079 7.42.404 2.312 2.601 4.519 2.601 6.949z" />
    <path fill="#fde3be" d="M609.213 299.304a4.92 4.92 0 0 1-4.92-4.92v-9.463a4.92 4.92 0 0 1 9.84 0v9.463a4.92 4.92 0 0 1-4.92 4.92z" opacity=".4" />
    <path fill="none" stroke="#36303e" stroke-linecap="round" stroke-linejoin="round" stroke-miterlimit="10" stroke-width="6" d="M584.917 671.414c-.609 2.351-3.288 3.938-4.26 6.075-.999 2.198-.445 5.257-1.783 7.203-1.362 1.98-4.423 2.554-6.088 4.243-1.68 1.706-2.209 4.772-4.148 6.153-1.944 1.384-5.017.881-7.17 1.909-2.148 1.025-3.689 3.732-5.995 4.373-2.285.635-4.999-.884-7.391-.654-2.35.226-4.725 2.241-7.132 2.049-2.341-.188-4.367-2.544-6.718-3.153s-5.267.469-7.404-.503c-2.198-.999-3.296-3.914-5.242-5.252-1.98-1.362-5.09-1.351-6.78-3.015-1.706-1.68-1.74-4.794-3.12-6.733-1.384-1.944-4.315-2.995-5.343-5.149-1.025-2.148 0-5.086-.641-7.392-.635-2.285-3.034-4.272-3.264-6.663-.226-2.35 1.743-4.756 1.936-7.163.188-2.341-1.385-5.028-.777-7.379.609-2.351 3.288-3.938 4.26-6.075.999-2.198.445-5.257 1.783-7.203 1.362-1.98 4.423-2.554 6.088-4.243 1.68-1.705 2.209-4.772 4.148-6.153 1.944-1.384 5.017-.881 7.17-1.909 2.148-1.025 3.689-3.732 5.995-4.373 2.285-.635 4.999.884 7.391.654 2.35-.226 4.725-2.241 7.132-2.049 2.341.188 4.367 2.544 6.718 3.153s5.267-.469 7.404.503c2.198.999 3.296 3.914 5.242 5.252 1.98 1.362 5.09 1.351 6.78 3.015 1.706 1.68 1.74 4.794 3.12 6.733 1.384 1.944 4.315 2.995 5.343 5.149 1.025 2.148 0 5.086.641 7.392.635 2.285 3.034 4.272 3.264 6.663.226 2.35-1.743 4.756-1.936 7.163-.187 2.34 1.386 5.027.777 7.379z" />
    <circle cx="544.258" cy="660.888" r="25" fill="#9b989f" />
    <path fill="#8f8d91" d="M544.258 644.054c12.416 0 22.713 9.053 24.663 20.917.219-1.329.337-2.692.337-4.083 0-13.807-11.193-25-25-25s-25 11.193-25 25c0 1.391.119 2.754.337 4.083 1.95-11.864 12.247-20.917 24.663-20.917z" />
    <circle cx="544.258" cy="660.888" r="10.583" fill="#5789C7" />
    <circle cx="544.258" cy="660.888" r="10.583" fill="none" stroke="#36303e" stroke-linecap="round" stroke-linejoin="round" stroke-miterlimit="10" stroke-width="4" />
    <circle cx="544.258" cy="660.888" r="25" fill="none" stroke="#36303e" stroke-linecap="round" stroke-linejoin="round" stroke-miterlimit="10" stroke-width="4" />
    <path fill="#403a46" d="M693.888 660.888c0 2.429-2.196 4.636-2.601 6.949-.417 2.379.887 5.201.079 7.42-.822 2.258-3.642 3.581-4.83 5.634-1.199 2.072-.943 5.173-2.473 6.996-1.535 1.828-4.636 2.11-6.463 3.645-1.822 1.531-2.636 4.537-4.708 5.736-2.053 1.188-5.061.397-7.319 1.219-2.219.808-4.012 3.354-6.391 3.771-2.313.405-4.865-1.369-7.294-1.369-2.429 0-4.981 1.774-7.294 1.369-2.379-.417-4.172-2.963-6.391-3.771-2.258-.822-5.266-.032-7.319-1.22-2.072-1.199-2.885-4.205-4.708-5.736-1.828-1.535-4.928-1.818-6.463-3.645-1.531-1.822-1.274-4.924-2.473-6.996-1.188-2.053-4.008-3.375-4.83-5.633-.808-2.219.495-5.041.079-7.42-.405-2.313-2.601-4.52-2.601-6.949s2.196-4.636 2.601-6.949c.417-2.379-.887-5.201-.079-7.42.822-2.258 3.642-3.581 4.83-5.634 1.199-2.072.943-5.173 2.473-6.996 1.535-1.827 4.636-2.11 6.463-3.645 1.822-1.531 2.636-4.537 4.708-5.736 2.053-1.188 5.061-.397 7.319-1.219 2.219-.808 4.012-3.354 6.391-3.771 2.313-.405 4.865 1.369 7.294 1.369 2.429 0 4.981-1.774 7.294-1.369 2.379.417 4.172 2.963 6.391 3.771 2.258.822 5.266.032 7.319 1.22 2.072 1.199 2.885 4.205 4.708 5.736 1.828 1.535 4.928 1.818 6.463 3.645 1.531 1.822 1.274 4.924 2.473 6.996 1.188 2.053 4.008 3.375 4.83 5.633.808 2.219-.495 5.041-.079 7.42.404 2.312 2.601 4.519 2.601 6.949z" />
    <path fill="none" stroke="#36303e" stroke-linecap="round" stroke-linejoin="round" stroke-miterlimit="10" stroke-width="6" d="M692.547 671.414c-.609 2.351-3.288 3.938-4.26 6.075-.999 2.198-.445 5.257-1.783 7.203-1.362 1.98-4.423 2.554-6.088 4.243-1.68 1.706-2.209 4.772-4.148 6.153-1.944 1.384-5.016.881-7.17 1.909-2.148 1.025-3.689 3.732-5.995 4.373-2.285.635-4.999-.884-7.391-.654-2.35.226-4.725 2.241-7.132 2.049-2.341-.188-4.367-2.544-6.718-3.153s-5.267.469-7.404-.503c-2.198-.999-3.296-3.914-5.242-5.252-1.98-1.362-5.09-1.351-6.78-3.015-1.705-1.68-1.739-4.794-3.12-6.733-1.384-1.944-4.315-2.995-5.343-5.149-1.025-2.148 0-5.086-.641-7.392-.635-2.285-3.034-4.272-3.264-6.663-.226-2.35 1.743-4.756 1.936-7.163.188-2.341-1.385-5.028-.777-7.379.609-2.351 3.288-3.938 4.26-6.075.999-2.198.445-5.257 1.783-7.203 1.362-1.98 4.423-2.554 6.088-4.243 1.68-1.705 2.209-4.772 4.148-6.153 1.944-1.384 5.016-.881 7.17-1.909 2.148-1.025 3.689-3.732 5.995-4.373 2.285-.635 4.999.884 7.391.654 2.35-.226 4.725-2.241 7.132-2.049 2.341.188 4.367 2.544 6.718 3.153s5.267-.469 7.404.503c2.198.999 3.296 3.914 5.242 5.252 1.98 1.362 5.09 1.351 6.78 3.015 1.705 1.68 1.739 4.794 3.12 6.733 1.384 1.944 4.315 2.995 5.343 5.149 1.025 2.148 0 5.086.641 7.392.635 2.285 3.034 4.272 3.264 6.663.226 2.35-1.743 4.756-1.936 7.163-.187 2.34 1.386 5.027.777 7.379z" />
    <circle cx="651.888" cy="660.888" r="25" fill="#9b989f" />
    <path fill="#8f8d91" d="M651.888 644.054c12.416 0 22.713 9.053 24.663 20.917.219-1.329.337-2.692.337-4.083 0-13.807-11.193-25-25-25s-25 11.193-25 25c0 1.391.119 2.754.337 4.083 1.95-11.864 12.247-20.917 24.663-20.917z" />
    <circle cx="651.888" cy="660.888" r="10.583" fill="#5789C7" />
    <circle cx="651.888" cy="660.888" r="10.583" fill="none" stroke="#36303e" stroke-linecap="round" stroke-linejoin="round" stroke-miterlimit="10" stroke-width="4" />
    <circle cx="651.888" cy="660.888" r="25" fill="none" stroke="#36303e" stroke-linecap="round" stroke-linejoin="round" stroke-miterlimit="10" stroke-width="4" />
    <path fill="#67646d" d="M605.629 306.221h30.379v16.833h-30.379z" />
    <path fill="#403a46" d="M605.629 317.221h30.379v5.833h-30.379z" opacity=".75" />
    <path fill="none" stroke="#36303e" stroke-linecap="round" stroke-linejoin="round" stroke-miterlimit="10" stroke-width="4" d="M605.629 306.221h30.379v16.833h-30.379z" />
    <path fill="#5789C7" d="M636.008 306.221h-30.379v-19.708a9.292 9.292 0 0 1 9.292-9.292h11.796a9.292 9.292 0 0 1 9.292 9.292l-.001 19.708z" />
    <path fill="#fde3be" d="M611.586 300.247h-4.958v-14.345a4.958 4.958 0 0 1 9.916 0v9.387a4.958 4.958 0 0 1-4.958 4.958z" opacity=".4" />
    <path fill="#5789C7" d="M629.138 285.846v15.208h-23.51v5.167h30.379v-20.5c0-1.703-1.185-3.083-2.648-3.083h-1.467c-1.52-.001-2.754 1.436-2.754 3.208z" />
    <path fill="none" stroke="#36303e" stroke-linecap="round" stroke-linejoin="round" stroke-miterlimit="10" stroke-width="4" d="M636.008 306.221h-30.379v-19.708a9.292 9.292 0 0 1 9.292-9.292h11.796a9.292 9.292 0 0 1 9.292 9.292l-.001 19.708z" />
    <path fill="#c71f2c" d="M718.554 618.628h-12.713v-39.657h12.713a6.62 6.62 0 0 1 6.62 6.62v26.417a6.62 6.62 0 0 1-6.62 6.62z" />
    <path fill="#fde3be" d="M708.695 612.804h-1.313v-28.688c0-1.208.979-2.188 2.187-2.188a2.563 2.563 0 0 1 2.563 2.563v24.875a3.436 3.436 0 0 1-3.437 3.438z" opacity=".27" />
    <path fill="#ad1e2f" d="M719.372 579.026c.02.174.053.344.053.523v31.896a3.182 3.182 0 0 1-3.182 3.182h-10.401v4h12.713a6.62 6.62 0 0 0 6.62-6.62V585.59a6.62 6.62 0 0 0-5.803-6.564z" />
    <path fill="none" stroke="#36303e" stroke-linecap="round" stroke-linejoin="round" stroke-miterlimit="10" stroke-width="4" d="M718.554 618.628h-10.281a2.432 2.432 0 0 1-2.432-2.433v-34.792a2.433 2.433 0 0 1 2.432-2.433h10.281a6.62 6.62 0 0 1 6.62 6.62v26.417a6.62 6.62 0 0 1-6.62 6.621z" />
    <path fill="#36303e" d="M443.96 620.47h-223a6.916 6.916 0 0 1 6.916-6.916H443.96v6.916z" />
    <path fill="none" stroke="#372f3c" stroke-linecap="round" stroke-linejoin="round" stroke-miterlimit="10" stroke-width="4" d="M443.96 620.47h-223 0a6.916 6.916 0 0 1 6.916-6.916H443.96v6.916z" />
    <path fill="none" stroke="#5789C7" stroke-linecap="round" stroke-linejoin="round" stroke-miterlimit="10" stroke-width="5" d="M567.485 587.888h64.357M568.114 598.827h14.125M568.114 608.667h26.625" />
    <path fill="#c71f2c" d="M497.883 613.554h-15.745a6.75 6.75 0 0 1-6.75-6.75v-8.995a6.75 6.75 0 0 1 6.75-6.75h15.745v22.495z" />
    <path fill="#fde3be" d="M477.198 610.5v-16.357a3.858 3.858 0 0 1 3.858 3.858v8.641a3.858 3.858 0 0 1-3.858 3.858z" opacity=".27" />
    <path fill="#ffb808" d="M486.635 591.059h11.248v22.495h-11.248z" />
    <path fill="none" stroke="#36303e" stroke-linecap="round" stroke-linejoin="round" stroke-miterlimit="10" stroke-width="4" d="M492.259 613.554h0a5.624 5.624 0 0 1-5.624-5.624v-11.248a5.624 5.624 0 0 1 5.624-5.624h0a5.624 5.624 0 0 1 5.624 5.624v11.248a5.624 5.624 0 0 1-5.624 5.624z" />
    <path fill="none" stroke="#36303e" stroke-linecap="round" stroke-linejoin="round" stroke-miterlimit="10" stroke-width="4" d="M492.585 613.554h-10.447a6.75 6.75 0 0 1-6.75-6.75v-8.995a6.75 6.75 0 0 1 6.75-6.75h10.447a5.298 5.298 0 0 1 5.298 5.298v11.898a5.298 5.298 0 0 1-5.298 5.299z" />
    <path fill="#47a942" d="M401.686 616.486h-138.45c-9.333 0-16.9-7.566-16.9-16.9v-138.45c0-9.333 7.566-16.9 16.9-16.9h138.45c9.333 0 16.9 7.566 16.9 16.9v138.45c-.001 9.333-7.567 16.9-16.9 16.9z" />
    <path fill="#81c347" d="M252.807 587.671V475.264c0-9.333 7.566-16.9 16.9-16.9h125.508c9.333 0 16.9 7.566 16.9 16.9v112.408a6.47 6.47 0 0 0 6.471 6.471V461.135c0-9.333-7.566-16.9-16.9-16.9h-138.45c-9.333 0-16.9 7.566-16.9 16.9v133.007a6.471 6.471 0 0 0 6.471-6.471z" />
    <circle cx="332.46" cy="530.361" r="44.201" fill="#5cb342" />
    <path fill="#cadb2a" d="M249.126 451.844h166.669c-3.023-4.581-8.21-7.609-14.109-7.609h-138.45c-5.9.001-11.087 3.028-14.11 7.609z" />
    <path fill="#26863f" stroke="#26863f" stroke-miterlimit="10" stroke-width="5" d="M304.614 512.698v-64.277a6.187 6.187 0 0 1 6.186-6.186h35.628a6.187 6.187 0 0 1 6.186 6.186v39.411a6.186 6.186 0 0 1-2.646 5.073L314.34 517.77c-4.1 2.863-9.726-.071-9.726-5.072z" />
    <path fill="#26863f" d="M401.686 604.484h-138.45c-9.333 0-16.9-7.566-16.9-16.9v12.002c0 9.333 7.566 16.9 16.9 16.9h138.45c9.333 0 16.9-7.566 16.9-16.9v-12.002c-.001 9.334-7.567 16.9-16.9 16.9z" />
    <path fill="none" stroke="#36303e" stroke-linecap="round" stroke-linejoin="round" stroke-miterlimit="10" stroke-width="4" d="M401.686 616.486h-138.45c-9.333 0-16.9-7.566-16.9-16.9v-138.45c0-9.333 7.566-16.9 16.9-16.9h138.45c9.333 0 16.9 7.566 16.9 16.9v138.45c-.001 9.333-7.567 16.9-16.9 16.9z" />
    <path fill="#f78f1e" d="M302.614 514.858v-72.127a3.495 3.495 0 0 1 3.495-3.495h41.01a3.495 3.495 0 0 1 3.495 3.495v43.506a3.495 3.495 0 0 1-1.495 2.866l-41.01 28.621c-2.316 1.617-5.495-.041-5.495-2.866z" />
    <path fill="#fdb813" d="M347.119 439.236h-41.01a3.495 3.495 0 0 0-3.495 3.495v25.328h48v-25.328a3.495 3.495 0 0 0-3.495-3.495z" />
    <path fill="#fef200" d="M347.119 439.236h-41.01a3.495 3.495 0 0 0-3.495 3.495v5.309h48v-5.309a3.495 3.495 0 0 0-3.495-3.495z" />
    <path fill="none" stroke="#36303e" stroke-linecap="round" stroke-linejoin="round" stroke-miterlimit="10" stroke-width="4" d="M302.614 514.858v-72.127a3.495 3.495 0 0 1 3.495-3.495h41.01a3.495 3.495 0 0 1 3.495 3.495v43.506a3.495 3.495 0 0 1-1.495 2.866l-41.01 28.621c-2.316 1.617-5.495-.041-5.495-2.866z" />
    <path fill="#81c347" d="M264.316 571a3.132 3.132 0 0 1-3.132-3.132v-94.186a3.132 3.132 0 0 1 6.264 0v94.186a3.132 3.132 0 0 1-3.132 3.132zM264.316 585a3.132 3.132 0 0 1-3.132-3.132v-2.683a3.132 3.132 0 0 1 6.264 0v2.683a3.132 3.132 0 0 1-3.132 3.132z" />
    <path fill="#26863f" d="M400.316 589.559a3.132 3.132 0 0 1-3.132-3.132V471.191a3.132 3.132 0 0 1 6.264 0v115.237a3.131 3.131 0 0 1-3.132 3.131z" opacity=".28" />
    <path fill="none" d="M523.527 378.75h-9.047a1.973 1.973 0 1 1 0-3.946h9.047a1.973 1.973 0 1 1 0 3.946z" />
</svg>