<svg xmlns="http://www.w3.org/2000/svg" width="148pt" height="148pt" viewBox="0 0 148 148" preserveAspectRatio="xMidYMid meet">
    <g transform="translate(0,148) scale(0.003514,-0.003514)" fill="#5789c7" stroke="none">
        <path d="M5577 30472 c-16 -17 -17 -693 -17 -9959 0 -9773 0 -9941 19 -9964
l19 -24 997 0 997 0 23 29 c12 16 25 45 29 65 3 20 6 1924 6 4232 0 3249 3
4198 12 4207 9 9 625 12 2709 12 l2697 0 24 -29 c12 -16 34 -46 48 -66 14 -19
46 -63 72 -98 26 -34 48 -66 48 -70 0 -4 24 -41 54 -80 29 -40 59 -84 66 -97
7 -14 24 -38 37 -55 24 -29 142 -198 193 -275 14 -21 45 -66 70 -100 25 -34
56 -79 70 -100 14 -21 40 -60 59 -87 34 -48 93 -132 172 -248 22 -33 49 -69
59 -80 10 -11 25 -33 34 -50 9 -16 48 -75 87 -130 38 -55 85 -122 104 -150 19
-27 87 -124 150 -215 63 -91 140 -201 170 -245 47 -69 87 -128 210 -305 14
-19 61 -87 106 -150 44 -63 96 -137 114 -165 19 -27 50 -72 70 -100 19 -27 70
-101 113 -163 114 -167 154 -225 188 -273 59 -85 128 -184 148 -214 11 -16 29
-40 40 -53 11 -12 29 -38 40 -57 20 -33 111 -165 209 -305 25 -36 77 -110 115
-165 65 -96 116 -168 193 -279 64 -92 180 -260 227 -330 26 -38 56 -81 67 -96
11 -15 49 -70 84 -121 35 -52 80 -115 100 -140 20 -26 48 -66 63 -90 15 -24
53 -80 84 -124 190 -271 298 -427 419 -605 25 -36 67 -96 94 -135 69 -96 250
-358 281 -405 21 -32 158 -227 225 -320 11 -15 55 -79 98 -141 74 -107 175
-254 276 -400 25 -35 55 -80 68 -99 12 -19 45 -66 73 -105 28 -38 91 -128 140
-200 49 -71 105 -152 125 -180 20 -27 72 -102 115 -165 75 -111 128 -186 246
-352 29 -42 54 -82 54 -90 0 -8 14 -27 31 -44 l30 -29 5502 -3 c5398 -3 5885
-1 6152 28 50 5 155 14 235 20 170 12 451 45 565 65 44 8 130 22 190 31 128
18 591 110 620 123 26 11 235 61 256 61 9 0 30 7 46 15 17 8 56 20 87 26 32 6
112 28 179 49 67 21 147 43 177 50 30 7 64 18 75 24 11 7 43 18 70 26 28 7 54
17 59 21 6 5 21 9 35 9 15 0 40 9 58 19 17 11 51 25 75 31 24 6 54 16 68 21
14 6 41 18 60 26 19 8 48 21 63 29 16 8 34 14 40 14 6 0 31 9 56 21 25 11 60
26 76 33 17 7 57 26 90 41 33 15 71 32 85 37 44 17 321 160 415 215 39 22 98
56 131 75 180 104 402 259 619 432 163 131 485 448 485 479 0 8 7 17 15 19 26
5 357 460 407 558 7 14 29 50 49 80 59 91 103 169 159 280 30 58 57 112 62
120 5 8 15 31 24 50 8 19 24 54 34 78 51 109 59 129 65 152 3 14 16 45 27 70
11 25 25 56 30 70 6 14 14 32 18 40 4 9 11 31 15 50 4 19 13 49 20 65 23 49
102 304 124 395 12 47 25 94 30 105 9 22 19 69 58 275 47 252 65 388 93 694
26 280 28 922 5 1166 -18 194 -52 435 -72 520 -8 36 -19 88 -24 115 -19 101
-52 241 -64 270 -7 17 -18 55 -25 85 -15 71 -38 147 -56 187 -8 17 -14 38 -14
46 0 9 -4 18 -9 21 -5 4 -12 25 -16 49 -4 23 -13 49 -20 57 -7 8 -18 33 -24
55 -16 52 -23 70 -50 130 -13 28 -28 61 -33 75 -9 24 -21 49 -45 95 -29 57
-53 111 -53 118 0 5 -11 23 -25 41 -14 18 -25 38 -25 44 0 24 -233 396 -277
444 -14 15 -31 35 -37 46 -48 83 -186 252 -388 477 -242 269 -536 525 -793
692 -44 28 -91 60 -105 71 -91 70 -429 247 -640 334 -14 6 -38 16 -55 23 -16
7 -43 18 -60 25 -16 7 -38 16 -47 21 -10 5 -26 9 -37 9 -10 0 -39 11 -62 25
-24 14 -56 25 -71 25 -15 0 -29 4 -32 9 -3 4 -34 14 -68 21 -35 7 -72 19 -83
26 -11 7 -60 22 -110 33 -49 11 -130 31 -180 44 l-90 23 -2 55 -3 54 49 23
c26 12 55 22 64 22 9 0 18 4 22 9 3 5 20 13 38 16 17 4 57 20 87 35 30 15 82
40 115 54 33 15 69 32 80 38 31 17 98 53 120 65 80 41 146 81 253 152 45 31
97 65 114 75 39 24 220 161 319 241 203 164 510 486 685 720 29 38 70 93 91
120 21 28 54 73 72 100 19 28 48 70 65 94 39 54 100 152 133 211 14 25 31 52
38 60 6 8 38 67 70 130 32 63 61 122 66 130 38 66 69 133 69 149 0 11 4 22 9
26 11 6 41 63 41 78 0 5 7 25 16 45 9 21 23 53 32 72 8 19 18 42 22 50 4 9 11
31 15 50 4 19 15 53 25 75 10 22 30 83 45 135 15 52 34 109 41 126 8 17 20 62
28 100 8 38 28 125 45 194 50 211 94 566 107 870 14 330 -38 947 -106 1270
-17 80 -38 181 -46 225 -9 44 -22 90 -30 102 -8 12 -14 30 -14 40 0 25 -48
190 -70 238 -10 22 -21 56 -25 75 -4 19 -11 41 -15 50 -4 8 -17 38 -29 65 -13
28 -27 58 -32 67 -5 10 -9 22 -9 28 0 6 -11 28 -25 50 -14 22 -25 44 -25 50 0
26 -140 264 -245 418 -259 379 -563 720 -895 1002 -41 35 -79 69 -85 77 -5 7
-31 28 -56 45 -26 18 -80 58 -120 88 -143 107 -223 160 -419 277 -85 51 -160
93 -166 93 -7 0 -43 18 -80 40 -38 22 -74 40 -82 40 -7 0 -30 11 -52 25 -22
14 -45 25 -52 25 -11 0 -38 12 -148 66 -14 6 -40 15 -58 19 -18 4 -52 18 -75
31 -23 13 -51 24 -62 24 -11 0 -32 6 -47 14 -15 8 -42 17 -60 21 -18 4 -39 12
-45 17 -7 6 -44 18 -82 28 -38 10 -127 37 -198 58 -70 22 -153 46 -183 53 -30
6 -62 16 -70 20 -8 4 -71 19 -140 34 -69 14 -149 33 -179 42 -30 8 -89 21
-130 28 -42 7 -161 28 -266 48 -337 63 -742 117 -1020 136 -77 6 -239 17 -360
26 -196 14 -699 15 -4627 13 l-4407 -3 -30 -29 c-20 -19 -34 -45 -40 -78 -8
-34 -11 -2783 -11 -9056 0 -6993 -3 -9011 -12 -9020 -9 -9 -128 -12 -474 -12
l-461 0 -25 23 c-13 12 -59 74 -102 137 -42 63 -97 142 -121 175 -25 33 -54
76 -65 95 -11 19 -43 67 -71 105 -27 39 -70 99 -94 135 -25 36 -91 130 -146
210 -56 80 -116 168 -135 195 -18 28 -72 104 -119 170 -134 190 -218 312 -240
348 -18 29 -139 204 -186 267 -10 14 -53 76 -96 138 -43 63 -87 127 -98 142
-11 16 -56 82 -101 147 -45 65 -95 138 -113 163 -18 25 -52 74 -76 110 -25 36
-59 85 -76 110 -18 25 -63 90 -101 145 -61 89 -110 160 -332 480 -84 121 -203
293 -278 402 -37 54 -99 143 -138 198 -38 55 -83 120 -99 145 -17 25 -41 61
-56 80 -14 19 -48 66 -75 103 -28 37 -50 72 -50 76 0 4 -26 43 -58 87 -32 44
-75 104 -95 134 -35 53 -77 115 -145 210 -18 25 -66 95 -107 155 -77 113 -179
261 -228 331 -15 21 -38 54 -50 72 -108 159 -160 233 -169 238 -5 3 -13 16
-19 27 -5 12 -35 59 -67 104 -31 44 -89 128 -128 185 -39 56 -85 123 -103 148
-18 25 -52 74 -77 110 -24 36 -80 117 -124 180 -45 63 -112 162 -151 219 -39
58 -80 117 -92 133 -70 89 -68 85 -65 140 l3 53 120 16 c66 10 149 22 185 29
73 13 242 43 339 60 35 6 71 15 80 19 9 5 70 21 136 36 66 15 127 31 136 35 9
5 61 21 115 35 55 14 108 30 119 35 11 4 36 15 56 24 20 8 62 22 94 31 32 8
68 22 81 30 13 8 30 15 39 15 8 0 23 4 33 9 37 20 91 41 104 41 7 0 27 8 43
19 17 10 48 24 70 31 22 7 56 20 75 30 19 9 58 27 85 40 28 13 62 32 77 42 14
10 35 18 46 18 12 0 24 4 27 10 3 5 25 18 48 29 23 11 53 26 67 34 14 8 36 20
50 26 14 6 54 29 90 50 36 22 92 56 125 76 67 40 91 56 218 147 87 62 158 115
280 211 134 105 497 459 497 485 0 6 6 12 14 12 7 0 31 21 52 48 21 26 65 79
99 117 62 71 124 147 160 197 114 154 181 249 215 303 17 28 51 82 75 120 65
103 155 271 155 287 0 8 9 23 20 33 11 10 20 24 20 31 0 8 9 28 20 46 11 18
20 39 20 46 0 8 8 26 19 40 10 15 21 41 25 57 6 26 27 74 71 165 7 14 18 48
25 75 7 28 22 61 32 74 10 13 18 36 18 52 0 15 4 30 9 33 5 3 12 20 15 38 3
18 13 46 22 63 8 16 24 65 35 110 12 44 29 98 39 120 10 22 23 67 30 100 24
121 41 189 49 199 8 11 15 46 51 251 11 66 27 152 35 190 14 69 20 120 50 400
52 493 52 1062 0 1555 -23 212 -43 361 -65 480 -11 58 -25 137 -31 175 -6 39
-21 108 -34 155 -14 47 -34 130 -46 185 -12 55 -28 114 -35 132 -8 17 -14 36
-14 42 0 6 -4 19 -9 29 -5 9 -15 44 -21 77 -7 33 -21 75 -31 95 -11 19 -22 49
-25 67 -3 18 -10 36 -15 39 -5 3 -9 15 -9 27 0 13 -9 40 -20 62 -11 21 -24 54
-30 74 -13 40 -17 51 -53 131 -14 31 -29 69 -33 85 -4 17 -15 42 -25 57 -11
14 -19 32 -19 38 0 7 -12 35 -26 64 -14 28 -30 59 -35 68 -69 136 -137 260
-159 288 -15 19 -30 44 -34 54 -6 19 -172 267 -224 337 -154 207 -319 396
-512 589 -325 326 -518 487 -834 699 -55 37 -128 82 -196 121 -41 23 -97 56
-123 71 -27 16 -52 29 -57 29 -4 0 -36 16 -70 35 -34 19 -66 35 -71 35 -10 0
-20 5 -79 35 -19 10 -42 22 -50 25 -8 4 -28 14 -45 22 -16 9 -43 18 -59 22
-17 4 -41 15 -55 25 -14 10 -42 22 -61 26 -30 6 -92 32 -162 66 -10 5 -27 9
-37 9 -11 0 -23 5 -26 10 -3 6 -17 10 -31 10 -24 0 -31 2 -91 34 -17 9 -39 16
-49 16 -20 0 -144 36 -189 56 -32 13 -423 109 -490 119 -22 4 -76 15 -120 25
-81 19 -277 50 -440 71 -49 6 -142 18 -205 26 -103 15 -628 17 -4936 20 -4673
3 -4821 3 -4837 -15z m9053 -1790 c260 -23 540 -66 758 -116 84 -20 161 -36
170 -36 9 0 29 -6 44 -14 15 -8 42 -17 60 -21 42 -8 190 -55 203 -65 6 -4 39
-15 74 -24 35 -10 77 -26 95 -37 17 -10 38 -19 46 -19 8 0 31 -8 50 -18 19
-11 48 -22 64 -26 17 -4 42 -16 57 -27 15 -10 35 -19 44 -19 9 0 29 -8 43 -19
36 -25 128 -71 143 -71 7 0 26 -11 43 -24 17 -13 54 -35 81 -50 72 -38 203
-118 289 -178 269 -185 533 -420 663 -590 15 -20 48 -63 73 -95 44 -57 124
-176 168 -250 47 -79 132 -237 132 -246 0 -5 20 -47 45 -95 25 -47 45 -91 45
-99 0 -7 9 -29 19 -50 11 -21 32 -78 46 -127 14 -49 29 -94 34 -100 9 -11 28
-75 51 -176 7 -30 17 -62 21 -70 7 -13 21 -86 74 -385 20 -113 24 -151 40
-409 30 -470 9 -1115 -46 -1401 -5 -27 -23 -122 -40 -210 -16 -87 -34 -164
-38 -170 -5 -5 -16 -48 -26 -95 -9 -47 -23 -98 -30 -115 -7 -16 -26 -68 -41
-115 -15 -47 -35 -97 -45 -112 -11 -14 -19 -35 -19 -46 0 -11 -7 -33 -15 -49
-8 -15 -38 -77 -68 -138 -62 -128 -115 -223 -128 -231 -5 -3 -9 -11 -9 -19 0
-7 -18 -39 -40 -71 -22 -33 -57 -84 -77 -114 -59 -88 -235 -295 -300 -353 -18
-16 -33 -35 -33 -43 0 -8 -5 -14 -11 -14 -5 0 -46 -30 -89 -67 -147 -127 -203
-172 -277 -223 -12 -8 -50 -35 -85 -60 -89 -64 -401 -250 -419 -250 -6 0 -25
-11 -43 -25 -18 -14 -38 -25 -45 -25 -6 0 -19 -4 -29 -8 -118 -57 -171 -81
-192 -87 -14 -5 -41 -16 -60 -26 -19 -11 -40 -19 -47 -19 -13 0 -24 -5 -70
-28 -13 -7 -32 -12 -44 -12 -11 0 -33 -7 -47 -15 -30 -17 -355 -115 -382 -115
-9 0 -52 -9 -96 -21 -195 -51 -617 -113 -896 -130 -230 -14 -206 -23 -292 105
-31 44 -87 126 -126 181 -39 55 -78 113 -88 129 -9 16 -26 40 -38 55 -11 14
-65 91 -119 171 -54 80 -112 163 -129 184 -17 22 -40 54 -51 73 -20 33 -113
169 -204 298 -28 39 -79 113 -115 165 -36 52 -95 138 -131 190 -36 52 -97 142
-136 200 -39 58 -82 116 -94 130 -13 14 -31 41 -40 60 -10 19 -25 44 -35 55
-10 11 -48 65 -86 120 -63 93 -95 139 -166 240 -41 57 -184 266 -303 440 -19
28 -70 102 -115 165 -44 63 -88 128 -98 143 -9 15 -39 58 -66 95 -26 37 -85
120 -130 186 -44 65 -94 138 -111 161 -16 24 -66 96 -110 160 -44 65 -93 137
-110 161 -16 23 -65 93 -108 156 -42 62 -91 133 -109 158 -30 43 -88 125 -163
235 -19 28 -66 95 -104 150 -39 55 -104 150 -145 210 -41 61 -93 135 -115 165
-22 30 -48 69 -57 85 -9 17 -24 39 -34 50 -9 11 -51 69 -91 128 -41 60 -83
121 -94 136 -11 16 -41 59 -67 97 -26 38 -69 101 -96 139 -27 39 -84 122 -127
185 -43 63 -92 133 -107 155 -15 22 -60 87 -100 145 -40 58 -85 123 -100 145
-16 22 -57 80 -91 129 -34 49 -83 119 -108 155 -26 36 -64 93 -85 126 -21 33
-60 88 -86 121 -26 34 -48 65 -48 68 0 4 -27 43 -60 87 -33 44 -60 82 -60 85
0 2 -27 44 -61 92 -33 48 -80 116 -104 152 -24 36 -70 102 -102 147 -87 125
-160 230 -215 310 -27 40 -54 75 -59 79 -10 6 -12 107 -2 118 4 3 1256 5 2782
3 2135 -2 2810 -6 2921 -15z m15715 -45 c251 -21 539 -54 630 -72 39 -8 122
-21 185 -30 63 -10 120 -21 125 -25 6 -4 42 -13 80 -19 77 -13 209 -46 240
-61 11 -5 60 -18 109 -30 49 -12 99 -28 110 -36 11 -8 29 -14 39 -14 11 0 33
-6 50 -14 18 -8 50 -20 72 -27 22 -6 53 -20 70 -30 16 -11 37 -19 45 -19 8 0
40 -12 70 -27 30 -15 75 -36 100 -46 83 -37 248 -124 271 -144 8 -7 21 -13 27
-13 10 0 198 -123 305 -200 168 -121 409 -364 530 -535 31 -44 68 -96 82 -115
28 -39 50 -77 94 -161 16 -30 36 -61 45 -68 9 -8 16 -20 16 -27 0 -8 25 -63
55 -122 30 -60 55 -112 55 -117 0 -4 11 -32 25 -60 13 -29 36 -92 50 -140 14
-49 30 -94 35 -100 5 -6 17 -45 26 -86 9 -41 22 -96 28 -124 6 -27 14 -54 17
-60 6 -9 18 -72 55 -295 51 -306 64 -950 25 -1241 -16 -120 -66 -357 -81 -389
-5 -8 -18 -51 -31 -95 -12 -44 -33 -105 -47 -135 -13 -30 -28 -65 -33 -77 -5
-13 -13 -33 -18 -45 -5 -13 -12 -30 -15 -38 -4 -8 -15 -28 -25 -45 -11 -16
-20 -36 -20 -44 -1 -8 -7 -22 -15 -30 -7 -9 -26 -41 -42 -71 -15 -30 -37 -68
-49 -85 -11 -16 -24 -37 -30 -46 -5 -9 -27 -41 -47 -71 -21 -31 -38 -58 -38
-61 0 -4 -46 -62 -102 -129 -166 -200 -375 -401 -532 -513 -31 -22 -72 -51
-90 -65 -19 -14 -47 -33 -63 -42 -15 -10 -55 -35 -88 -57 -58 -38 -95 -60
-260 -153 -110 -62 -373 -192 -470 -232 -16 -7 -50 -22 -75 -33 -25 -12 -63
-27 -85 -33 -22 -6 -49 -15 -60 -20 -105 -45 -132 -54 -225 -71 -36 -6 -76
-17 -90 -24 -14 -7 -81 -23 -150 -35 -69 -12 -141 -26 -160 -30 -64 -16 -160
-31 -283 -45 -67 -8 -160 -19 -207 -24 -123 -15 -386 -30 -647 -38 l-228 -6
-57 36 c-31 21 -62 37 -68 37 -6 0 -33 15 -60 33 -27 17 -82 50 -122 73 -40
22 -126 71 -190 107 -64 37 -120 67 -124 67 -3 0 -18 8 -32 18 -15 11 -54 34
-87 51 -33 18 -87 49 -120 69 -33 19 -85 49 -115 67 -134 77 -197 114 -230
133 -19 12 -65 37 -102 56 -36 20 -69 40 -73 46 -3 5 -12 10 -19 10 -7 0 -51
22 -97 50 -102 60 -150 88 -254 147 -44 25 -109 63 -145 83 -36 21 -90 51
-120 68 -30 16 -96 54 -147 83 -51 30 -138 80 -195 113 -57 32 -132 75 -168
96 -151 87 -319 180 -325 180 -3 0 -33 18 -65 40 -32 22 -64 40 -70 40 -6 0
-30 13 -53 28 -23 16 -96 59 -162 97 -66 37 -149 85 -185 106 -36 21 -92 52
-125 70 -33 17 -71 40 -84 50 -13 11 -30 19 -37 19 -7 0 -32 13 -56 29 -24 16
-97 59 -163 96 -66 38 -149 85 -185 106 -36 21 -95 54 -132 73 -36 20 -69 40
-73 46 -3 5 -12 10 -18 10 -7 0 -80 40 -162 88 -83 49 -213 124 -290 167 -77
43 -188 107 -247 141 -59 35 -113 64 -119 64 -6 0 -36 18 -66 40 -31 22 -63
40 -71 40 -8 0 -29 10 -46 23 -17 13 -78 49 -136 82 -58 32 -136 77 -175 100
-38 23 -117 69 -175 102 -247 140 -425 241 -492 280 -40 23 -91 51 -113 63
-22 12 -48 29 -57 38 -17 14 -18 103 -18 1597 0 1232 3 1584 12 1593 10 10
748 12 3433 9 3121 -3 3437 -4 3620 -20z m-22543 -1964 c21 -32 57 -85 81
-118 23 -33 77 -109 118 -170 91 -133 286 -416 329 -477 17 -23 55 -79 86
-123 30 -44 80 -116 111 -160 60 -86 108 -154 211 -305 36 -52 83 -120 104
-150 54 -78 176 -253 229 -330 25 -36 65 -94 90 -130 25 -36 72 -103 105 -150
32 -47 76 -110 97 -140 21 -30 58 -84 83 -120 24 -36 59 -86 77 -111 44 -63
127 -183 157 -229 57 -85 88 -129 147 -208 35 -45 63 -86 63 -90 0 -5 19 -35
43 -67 24 -33 70 -98 102 -145 32 -47 75 -107 94 -135 42 -60 84 -121 131
-189 20 -28 65 -93 100 -144 101 -145 140 -202 209 -303 35 -52 82 -119 105
-149 23 -31 46 -63 51 -72 6 -9 31 -48 57 -85 26 -37 84 -120 127 -183 44 -63
105 -151 136 -195 30 -44 76 -109 101 -145 25 -36 79 -114 120 -175 41 -60 83
-121 93 -135 11 -14 114 -162 231 -329 l211 -303 -3 -52 -3 -51 -2049 -3
-2050 -2 -23 22 -23 21 0 2937 c0 1615 3 2940 7 2943 3 4 29 7 57 7 l51 0 37
-57z m15667 -3427 c25 -18 69 -45 96 -60 53 -28 57 -30 149 -89 33 -21 80 -50
105 -63 25 -14 78 -45 116 -69 39 -25 88 -54 110 -66 22 -12 59 -35 82 -50 23
-16 47 -29 54 -29 7 0 22 -8 33 -18 12 -10 66 -45 121 -77 55 -32 126 -75 157
-94 32 -20 80 -49 108 -66 29 -16 78 -47 111 -67 33 -21 65 -38 72 -38 7 0 28
-13 47 -29 19 -15 53 -37 75 -49 22 -11 78 -44 125 -73 47 -29 113 -68 147
-88 61 -35 210 -124 304 -183 25 -15 50 -28 55 -28 5 0 25 -13 44 -29 19 -15
51 -36 70 -46 40 -20 129 -72 212 -124 31 -20 79 -49 108 -66 29 -16 75 -45
104 -64 28 -18 71 -44 96 -57 25 -14 74 -43 110 -65 36 -21 72 -42 80 -46 8
-3 42 -24 74 -46 33 -21 80 -50 105 -63 25 -14 78 -45 116 -69 39 -25 93 -56
120 -71 28 -14 64 -37 82 -50 17 -13 36 -24 42 -24 6 0 40 -19 75 -42 35 -24
87 -56 115 -73 29 -16 85 -50 126 -75 41 -25 97 -58 125 -75 28 -16 73 -45
101 -62 28 -18 55 -33 61 -33 6 0 32 -16 59 -34 26 -19 69 -46 96 -61 26 -14
57 -31 67 -38 70 -44 202 -125 341 -207 50 -30 110 -66 134 -82 25 -15 49 -28
55 -28 6 0 27 -13 46 -29 19 -15 58 -40 85 -55 28 -14 78 -43 111 -64 34 -20
86 -51 115 -69 129 -75 153 -90 202 -122 l52 -34 395 -13 c533 -18 822 -32
900 -44 36 -5 153 -17 260 -25 107 -8 274 -26 370 -40 96 -13 229 -31 295 -40
66 -9 161 -25 210 -35 50 -10 119 -23 155 -30 36 -6 135 -26 220 -45 85 -18
182 -38 215 -45 33 -7 69 -19 80 -26 11 -8 33 -14 50 -14 32 -1 192 -41 213
-53 7 -5 58 -19 113 -33 56 -13 116 -31 133 -39 17 -7 65 -23 106 -35 41 -12
91 -30 110 -39 19 -10 49 -21 65 -25 17 -4 44 -13 60 -20 85 -39 132 -60 150
-67 39 -14 230 -112 246 -125 8 -8 21 -14 28 -14 17 0 143 -81 299 -193 105
-74 336 -273 407 -349 114 -122 273 -322 327 -412 42 -69 148 -261 148 -268 0
-4 11 -26 25 -48 14 -22 25 -45 25 -51 0 -6 8 -28 18 -48 11 -20 27 -54 36
-76 10 -22 22 -47 26 -55 4 -9 11 -31 15 -50 4 -19 11 -41 15 -50 29 -59 63
-163 75 -235 4 -22 10 -44 15 -50 8 -9 51 -235 71 -365 55 -367 57 -962 4
-1400 -21 -172 -65 -433 -75 -445 -5 -6 -12 -31 -16 -55 -7 -49 -40 -173 -54
-205 -5 -11 -17 -47 -26 -80 -9 -33 -27 -81 -40 -106 -13 -26 -24 -52 -24 -59
0 -13 -21 -61 -71 -163 -16 -31 -29 -62 -29 -68 0 -6 -11 -25 -24 -42 -13 -18
-38 -59 -55 -92 -122 -233 -315 -489 -531 -705 -228 -229 -362 -337 -565 -459
-55 -33 -120 -72 -145 -88 -25 -15 -55 -31 -67 -34 -12 -4 -35 -16 -52 -28
-16 -12 -34 -21 -40 -21 -7 0 -53 -21 -104 -46 -51 -25 -101 -49 -112 -53 -18
-7 -44 -18 -150 -66 -16 -8 -48 -19 -70 -24 -22 -6 -49 -16 -60 -24 -11 -7
-56 -23 -100 -36 -44 -13 -98 -31 -120 -41 -22 -10 -63 -23 -91 -28 -27 -6
-88 -22 -135 -36 -47 -13 -125 -32 -174 -41 -50 -9 -112 -22 -140 -30 -99 -28
-520 -97 -775 -126 -101 -11 -187 -22 -191 -25 -4 -2 -155 -11 -335 -19 -279
-13 -842 -15 -3693 -15 -3117 0 -3366 1 -3383 17 -17 16 -18 200 -18 5488 0
3009 3 5475 7 5478 3 4 35 7 71 7 57 0 69 -4 111 -34z" />
    </g>
</svg>